<svg width="199" height="50" viewBox="0 0 199 50" fill="none" xmlns="http://www.w3.org/2000/svg">
<path d="M83.294 18.846C83.1913 18.9487 83.0513 19 82.874 19C82.706 19 82.5707 18.944 82.468 18.832L79.094 15.164L82.3 11.524C82.4027 11.412 82.538 11.3513 82.706 11.342C82.874 11.3327 83.0093 11.3747 83.112 11.468C83.2333 11.58 83.2987 11.706 83.308 11.846C83.3267 11.9767 83.2847 12.1027 83.182 12.224L80.578 15.108L83.322 18.104C83.4247 18.216 83.476 18.342 83.476 18.482C83.476 18.6127 83.4153 18.734 83.294 18.846ZM77.82 19C77.652 19 77.5167 18.9487 77.414 18.846C77.3113 18.734 77.26 18.5893 77.26 18.412V11.944C77.26 11.7573 77.3113 11.6127 77.414 11.51C77.5167 11.398 77.652 11.342 77.82 11.342C78.0067 11.342 78.1513 11.398 78.254 11.51C78.366 11.6127 78.422 11.7573 78.422 11.944V14.576H80.158V15.668H78.422V18.412C78.422 18.5893 78.366 18.734 78.254 18.846C78.1513 18.9487 78.0067 19 77.82 19ZM88.5347 19.084C87.872 19.084 87.2794 18.9487 86.7567 18.678C86.2434 18.398 85.8374 17.992 85.5387 17.46C85.24 16.928 85.0907 16.2747 85.0907 15.5V11.93C85.0907 11.762 85.1467 11.622 85.2587 11.51C85.3707 11.398 85.5107 11.342 85.6787 11.342C85.8467 11.342 85.9867 11.398 86.0987 11.51C86.2107 11.622 86.2667 11.762 86.2667 11.93V15.5C86.2667 16.0693 86.374 16.536 86.5887 16.9C86.8034 17.2547 87.0927 17.5253 87.4567 17.712C87.8207 17.8893 88.2314 17.978 88.6887 17.978C89.1274 17.978 89.524 17.894 89.8787 17.726C90.2334 17.5487 90.5134 17.3153 90.7187 17.026C90.924 16.7273 91.0267 16.3867 91.0267 16.004H91.8247C91.806 16.592 91.652 17.1193 91.3627 17.586C91.0734 18.0433 90.6814 18.4073 90.1867 18.678C89.692 18.9487 89.1414 19.084 88.5347 19.084ZM91.6147 19C91.4374 19 91.2927 18.9487 91.1807 18.846C91.078 18.734 91.0267 18.5847 91.0267 18.398V11.93C91.0267 11.7527 91.078 11.6127 91.1807 11.51C91.2927 11.398 91.4374 11.342 91.6147 11.342C91.792 11.342 91.9367 11.398 92.0487 11.51C92.1607 11.6127 92.2167 11.7527 92.2167 11.93V18.398C92.2167 18.5847 92.1607 18.734 92.0487 18.846C91.9367 18.9487 91.792 19 91.6147 19ZM104.995 19C104.817 19 104.673 18.9487 104.561 18.846C104.449 18.734 104.393 18.5893 104.393 18.412V14.394C104.393 13.75 104.229 13.2507 103.903 12.896C103.576 12.5413 103.151 12.364 102.629 12.364C102.078 12.364 101.625 12.5507 101.271 12.924C100.925 13.2973 100.753 13.7873 100.753 14.394H99.7307C99.74 13.7687 99.8753 13.2227 100.137 12.756C100.398 12.28 100.757 11.9113 101.215 11.65C101.681 11.3887 102.209 11.258 102.797 11.258C103.338 11.258 103.819 11.384 104.239 11.636C104.659 11.888 104.985 12.252 105.219 12.728C105.461 13.1947 105.583 13.75 105.583 14.394V18.412C105.583 18.5893 105.527 18.734 105.415 18.846C105.303 18.9487 105.163 19 104.995 19ZM95.3347 19C95.148 19 94.9987 18.9487 94.8867 18.846C94.784 18.734 94.7327 18.5893 94.7327 18.412V11.944C94.7327 11.7667 94.784 11.622 94.8867 11.51C94.9987 11.398 95.148 11.342 95.3347 11.342C95.512 11.342 95.652 11.398 95.7547 11.51C95.8667 11.622 95.9227 11.7667 95.9227 11.944V18.412C95.9227 18.5893 95.8667 18.734 95.7547 18.846C95.652 18.9487 95.512 19 95.3347 19ZM100.165 19C99.9967 19 99.8567 18.9487 99.7447 18.846C99.6327 18.734 99.5767 18.5893 99.5767 18.412V14.394C99.5767 13.75 99.4087 13.2507 99.0727 12.896C98.746 12.5413 98.326 12.364 97.8127 12.364C97.262 12.364 96.8093 12.546 96.4547 12.91C96.1 13.274 95.9227 13.75 95.9227 14.338H95.1107C95.1293 13.7313 95.26 13.1993 95.5027 12.742C95.7453 12.2753 96.0813 11.9113 96.5107 11.65C96.94 11.3887 97.43 11.258 97.9807 11.258C98.522 11.258 99.0027 11.384 99.4227 11.636C99.8427 11.888 100.169 12.252 100.403 12.728C100.636 13.1947 100.753 13.75 100.753 14.394V18.412C100.753 18.5893 100.697 18.734 100.585 18.846C100.482 18.9487 100.342 19 100.165 19ZM111.271 19.07C110.562 19.07 109.927 18.902 109.367 18.566C108.807 18.2207 108.364 17.754 108.037 17.166C107.711 16.578 107.547 15.9153 107.547 15.178C107.547 14.4313 107.715 13.764 108.051 13.176C108.397 12.588 108.863 12.126 109.451 11.79C110.039 11.4447 110.702 11.272 111.439 11.272C112.167 11.272 112.821 11.4447 113.399 11.79C113.987 12.126 114.449 12.588 114.785 13.176C115.131 13.764 115.308 14.4313 115.317 15.178L114.841 15.416C114.841 16.1067 114.683 16.7273 114.365 17.278C114.057 17.8287 113.633 18.2673 113.091 18.594C112.559 18.9113 111.953 19.07 111.271 19.07ZM111.439 18.006C111.962 18.006 112.424 17.8847 112.825 17.642C113.236 17.39 113.558 17.0493 113.791 16.62C114.034 16.1907 114.155 15.71 114.155 15.178C114.155 14.6367 114.034 14.156 113.791 13.736C113.558 13.3067 113.236 12.966 112.825 12.714C112.424 12.462 111.962 12.336 111.439 12.336C110.926 12.336 110.459 12.462 110.039 12.714C109.629 12.966 109.302 13.3067 109.059 13.736C108.817 14.156 108.695 14.6367 108.695 15.178C108.695 15.71 108.817 16.1907 109.059 16.62C109.302 17.0493 109.629 17.39 110.039 17.642C110.459 17.8847 110.926 18.006 111.439 18.006ZM114.715 19C114.547 19 114.403 18.9487 114.281 18.846C114.169 18.734 114.113 18.5893 114.113 18.412V16.102L114.379 14.884L115.317 15.178V18.412C115.317 18.5893 115.261 18.734 115.149 18.846C115.037 18.9487 114.893 19 114.715 19ZM120.718 19.084C120.056 19.084 119.463 18.9487 118.94 18.678C118.427 18.398 118.021 17.992 117.722 17.46C117.424 16.928 117.274 16.2747 117.274 15.5V11.93C117.274 11.762 117.33 11.622 117.442 11.51C117.554 11.398 117.694 11.342 117.862 11.342C118.03 11.342 118.17 11.398 118.282 11.51C118.394 11.622 118.45 11.762 118.45 11.93V15.5C118.45 16.0693 118.558 16.536 118.772 16.9C118.987 17.2547 119.276 17.5253 119.64 17.712C120.004 17.8893 120.415 17.978 120.872 17.978C121.311 17.978 121.708 17.894 122.062 17.726C122.417 17.5487 122.697 17.3153 122.902 17.026C123.108 16.7273 123.21 16.3867 123.21 16.004H124.008C123.99 16.592 123.836 17.1193 123.546 17.586C123.257 18.0433 122.865 18.4073 122.37 18.678C121.876 18.9487 121.325 19.084 120.718 19.084ZM123.798 19C123.621 19 123.476 18.9487 123.364 18.846C123.262 18.734 123.21 18.5847 123.21 18.398V11.93C123.21 11.7527 123.262 11.6127 123.364 11.51C123.476 11.398 123.621 11.342 123.798 11.342C123.976 11.342 124.12 11.398 124.232 11.51C124.344 11.6127 124.4 11.7527 124.4 11.93V18.398C124.4 18.5847 124.344 18.734 124.232 18.846C124.12 18.9487 123.976 19 123.798 19ZM120.914 10.348C120.448 10.348 120.028 10.2687 119.654 10.11C119.29 9.95133 119.001 9.73667 118.786 9.466C118.572 9.186 118.464 8.878 118.464 8.542C118.464 8.374 118.516 8.234 118.618 8.122C118.73 8.01 118.861 7.954 119.01 7.954C119.169 7.954 119.3 8.01 119.402 8.122C119.505 8.234 119.556 8.38333 119.556 8.57C119.556 8.822 119.687 9.02733 119.948 9.186C120.21 9.34467 120.532 9.424 120.914 9.424C121.306 9.424 121.628 9.34467 121.88 9.186C122.142 9.02733 122.272 8.822 122.272 8.57C122.272 8.38333 122.324 8.234 122.426 8.122C122.538 8.01 122.669 7.954 122.818 7.954C122.977 7.954 123.108 8.01 123.21 8.122C123.313 8.234 123.364 8.374 123.364 8.542C123.364 8.878 123.257 9.186 123.042 9.466C122.828 9.73667 122.534 9.95133 122.16 10.11C121.796 10.2687 121.381 10.348 120.914 10.348ZM130.346 19.07C129.609 19.07 128.951 18.902 128.372 18.566C127.794 18.2207 127.336 17.754 127 17.166C126.674 16.578 126.51 15.9153 126.51 15.178C126.51 14.4313 126.669 13.764 126.986 13.176C127.313 12.588 127.752 12.126 128.302 11.79C128.862 11.4447 129.506 11.272 130.234 11.272C130.794 11.272 131.312 11.384 131.788 11.608C132.264 11.8227 132.684 12.1493 133.048 12.588C133.16 12.7187 133.198 12.854 133.16 12.994C133.132 13.1247 133.048 13.2413 132.908 13.344C132.796 13.4187 132.67 13.4467 132.53 13.428C132.4 13.4 132.278 13.3253 132.166 13.204C131.653 12.6253 131.009 12.336 130.234 12.336C129.721 12.336 129.268 12.4573 128.876 12.7C128.494 12.9427 128.195 13.2787 127.98 13.708C127.766 14.128 127.658 14.618 127.658 15.178C127.658 15.7193 127.77 16.2047 127.994 16.634C128.228 17.054 128.545 17.39 128.946 17.642C129.357 17.8847 129.824 18.006 130.346 18.006C130.701 18.006 131.018 17.9593 131.298 17.866C131.588 17.7727 131.844 17.628 132.068 17.432C132.199 17.3293 132.33 17.2733 132.46 17.264C132.591 17.2547 132.712 17.292 132.824 17.376C132.946 17.488 133.016 17.614 133.034 17.754C133.053 17.894 133.006 18.02 132.894 18.132C132.213 18.7573 131.364 19.07 130.346 19.07ZM141.304 18.846C141.201 18.9487 141.061 19 140.884 19C140.716 19 140.58 18.944 140.478 18.832L137.104 15.164L140.31 11.524C140.412 11.412 140.548 11.3513 140.716 11.342C140.884 11.3327 141.019 11.3747 141.122 11.468C141.243 11.58 141.308 11.706 141.318 11.846C141.336 11.9767 141.294 12.1027 141.192 12.224L138.588 15.108L141.332 18.104C141.434 18.216 141.486 18.342 141.486 18.482C141.486 18.6127 141.425 18.734 141.304 18.846ZM135.83 19C135.662 19 135.526 18.9487 135.424 18.846C135.321 18.734 135.27 18.5893 135.27 18.412V11.944C135.27 11.7573 135.321 11.6127 135.424 11.51C135.526 11.398 135.662 11.342 135.83 11.342C136.016 11.342 136.161 11.398 136.264 11.51C136.376 11.6127 136.432 11.7573 136.432 11.944V14.576H138.168V15.668H136.432V18.412C136.432 18.5893 136.376 18.734 136.264 18.846C136.161 18.9487 136.016 19 135.83 19ZM146.544 19.084C145.882 19.084 145.289 18.9487 144.766 18.678C144.253 18.398 143.847 17.992 143.548 17.46C143.25 16.928 143.1 16.2747 143.1 15.5V11.93C143.1 11.762 143.156 11.622 143.268 11.51C143.38 11.398 143.52 11.342 143.688 11.342C143.856 11.342 143.996 11.398 144.108 11.51C144.22 11.622 144.276 11.762 144.276 11.93V15.5C144.276 16.0693 144.384 16.536 144.598 16.9C144.813 17.2547 145.102 17.5253 145.466 17.712C145.83 17.8893 146.241 17.978 146.698 17.978C147.137 17.978 147.534 17.894 147.888 17.726C148.243 17.5487 148.523 17.3153 148.728 17.026C148.934 16.7273 149.036 16.3867 149.036 16.004H149.834C149.816 16.592 149.662 17.1193 149.372 17.586C149.083 18.0433 148.691 18.4073 148.196 18.678C147.702 18.9487 147.151 19.084 146.544 19.084ZM149.624 19C149.447 19 149.302 18.9487 149.19 18.846C149.088 18.734 149.036 18.5847 149.036 18.398V11.93C149.036 11.7527 149.088 11.6127 149.19 11.51C149.302 11.398 149.447 11.342 149.624 11.342C149.802 11.342 149.946 11.398 150.058 11.51C150.17 11.6127 150.226 11.7527 150.226 11.93V18.398C150.226 18.5847 150.17 18.734 150.058 18.846C149.946 18.9487 149.802 19 149.624 19ZM156.046 19.084C155.384 19.084 154.791 18.9487 154.268 18.678C153.755 18.398 153.349 17.992 153.05 17.46C152.752 16.928 152.602 16.2747 152.602 15.5V11.93C152.602 11.762 152.658 11.622 152.77 11.51C152.882 11.398 153.022 11.342 153.19 11.342C153.358 11.342 153.498 11.398 153.61 11.51C153.722 11.622 153.778 11.762 153.778 11.93V15.5C153.778 16.0693 153.886 16.536 154.1 16.9C154.315 17.2547 154.604 17.5253 154.968 17.712C155.332 17.8893 155.743 17.978 156.2 17.978C156.639 17.978 157.036 17.894 157.39 17.726C157.745 17.5487 158.025 17.3153 158.23 17.026C158.436 16.7273 158.538 16.3867 158.538 16.004H159.336C159.318 16.592 159.164 17.1193 158.874 17.586C158.585 18.0433 158.193 18.4073 157.698 18.678C157.204 18.9487 156.653 19.084 156.046 19.084ZM159.126 19C158.949 19 158.804 18.9487 158.692 18.846C158.59 18.734 158.538 18.5847 158.538 18.398V11.93C158.538 11.7527 158.59 11.6127 158.692 11.51C158.804 11.398 158.949 11.342 159.126 11.342C159.304 11.342 159.448 11.398 159.56 11.51C159.672 11.6127 159.728 11.7527 159.728 11.93V18.398C159.728 18.5847 159.672 18.734 159.56 18.846C159.448 18.9487 159.304 19 159.126 19ZM156.242 10.348C155.776 10.348 155.356 10.2687 154.982 10.11C154.618 9.95133 154.329 9.73667 154.114 9.466C153.9 9.186 153.792 8.878 153.792 8.542C153.792 8.374 153.844 8.234 153.946 8.122C154.058 8.01 154.189 7.954 154.338 7.954C154.497 7.954 154.628 8.01 154.73 8.122C154.833 8.234 154.884 8.38333 154.884 8.57C154.884 8.822 155.015 9.02733 155.276 9.186C155.538 9.34467 155.86 9.424 156.242 9.424C156.634 9.424 156.956 9.34467 157.208 9.186C157.47 9.02733 157.6 8.822 157.6 8.57C157.6 8.38333 157.652 8.234 157.754 8.122C157.866 8.01 157.997 7.954 158.146 7.954C158.305 7.954 158.436 8.01 158.538 8.122C158.641 8.234 158.692 8.374 158.692 8.542C158.692 8.878 158.585 9.186 158.37 9.466C158.156 9.73667 157.862 9.95133 157.488 10.11C157.124 10.2687 156.709 10.348 156.242 10.348ZM168.796 16.662C168.115 16.662 167.545 16.5173 167.088 16.228C166.64 15.9387 166.299 15.5327 166.066 15.01C165.833 14.4873 165.716 13.8807 165.716 13.19V11.944C165.716 11.7573 165.767 11.6127 165.87 11.51C165.982 11.398 166.131 11.342 166.318 11.342C166.495 11.342 166.635 11.398 166.738 11.51C166.85 11.6127 166.906 11.7573 166.906 11.944V13.19C166.906 13.9087 167.069 14.4827 167.396 14.912C167.732 15.3413 168.255 15.556 168.964 15.556C169.533 15.556 169.995 15.458 170.35 15.262C170.714 15.0567 170.896 14.7953 170.896 14.478H171.498C171.498 14.898 171.377 15.2713 171.134 15.598C170.901 15.9247 170.583 16.186 170.182 16.382C169.781 16.5687 169.319 16.662 168.796 16.662ZM171.498 19C171.311 19 171.162 18.9487 171.05 18.846C170.947 18.734 170.896 18.5847 170.896 18.398V11.944C170.896 11.7573 170.947 11.6127 171.05 11.51C171.162 11.398 171.311 11.342 171.498 11.342C171.675 11.342 171.815 11.398 171.918 11.51C172.03 11.6127 172.086 11.7573 172.086 11.944V18.398C172.086 18.5847 172.03 18.734 171.918 18.846C171.815 18.9487 171.675 19 171.498 19ZM177.922 19.07C177.212 19.07 176.578 18.902 176.018 18.566C175.458 18.2207 175.014 17.754 174.688 17.166C174.361 16.578 174.198 15.9153 174.198 15.178C174.198 14.4313 174.366 13.764 174.702 13.176C175.047 12.588 175.514 12.126 176.102 11.79C176.69 11.4447 177.352 11.272 178.09 11.272C178.818 11.272 179.471 11.4447 180.05 11.79C180.638 12.126 181.1 12.588 181.436 13.176C181.781 13.764 181.958 14.4313 181.968 15.178L181.492 15.416C181.492 16.1067 181.333 16.7273 181.016 17.278C180.708 17.8287 180.283 18.2673 179.742 18.594C179.21 18.9113 178.603 19.07 177.922 19.07ZM178.09 18.006C178.612 18.006 179.074 17.8847 179.476 17.642C179.886 17.39 180.208 17.0493 180.442 16.62C180.684 16.1907 180.806 15.71 180.806 15.178C180.806 14.6367 180.684 14.156 180.442 13.736C180.208 13.3067 179.886 12.966 179.476 12.714C179.074 12.462 178.612 12.336 178.09 12.336C177.576 12.336 177.11 12.462 176.69 12.714C176.279 12.966 175.952 13.3067 175.71 13.736C175.467 14.156 175.346 14.6367 175.346 15.178C175.346 15.71 175.467 16.1907 175.71 16.62C175.952 17.0493 176.279 17.39 176.69 17.642C177.11 17.8847 177.576 18.006 178.09 18.006ZM181.366 19C181.198 19 181.053 18.9487 180.932 18.846C180.82 18.734 180.764 18.5893 180.764 18.412V16.102L181.03 14.884L181.968 15.178V18.412C181.968 18.5893 181.912 18.734 181.8 18.846C181.688 18.9487 181.543 19 181.366 19ZM187.369 19.084C186.706 19.084 186.113 18.9487 185.591 18.678C185.077 18.398 184.671 17.992 184.373 17.46C184.074 16.928 183.925 16.2747 183.925 15.5V11.93C183.925 11.762 183.981 11.622 184.093 11.51C184.205 11.398 184.345 11.342 184.513 11.342C184.681 11.342 184.821 11.398 184.933 11.51C185.045 11.622 185.101 11.762 185.101 11.93V15.5C185.101 16.0693 185.208 16.536 185.423 16.9C185.637 17.2547 185.927 17.5253 186.291 17.712C186.655 17.8893 187.065 17.978 187.523 17.978C187.961 17.978 188.358 17.894 188.713 17.726C189.067 17.5487 189.347 17.3153 189.553 17.026C189.758 16.7273 189.861 16.3867 189.861 16.004H190.659C190.64 16.592 190.486 17.1193 190.197 17.586C189.907 18.0433 189.515 18.4073 189.021 18.678C188.526 18.9487 187.975 19.084 187.369 19.084ZM190.449 19C190.271 19 190.127 18.9487 190.015 18.846C189.912 18.734 189.861 18.5847 189.861 18.398V11.93C189.861 11.7527 189.912 11.6127 190.015 11.51C190.127 11.398 190.271 11.342 190.449 11.342C190.626 11.342 190.771 11.398 190.883 11.51C190.995 11.6127 191.051 11.7527 191.051 11.93V18.398C191.051 18.5847 190.995 18.734 190.883 18.846C190.771 18.9487 190.626 19 190.449 19ZM187.565 10.348C187.098 10.348 186.678 10.2687 186.305 10.11C185.941 9.95133 185.651 9.73667 185.437 9.466C185.222 9.186 185.115 8.878 185.115 8.542C185.115 8.374 185.166 8.234 185.269 8.122C185.381 8.01 185.511 7.954 185.661 7.954C185.819 7.954 185.95 8.01 186.053 8.122C186.155 8.234 186.207 8.38333 186.207 8.57C186.207 8.822 186.337 9.02733 186.599 9.186C186.86 9.34467 187.182 9.424 187.565 9.424C187.957 9.424 188.279 9.34467 188.531 9.186C188.792 9.02733 188.923 8.822 188.923 8.57C188.923 8.38333 188.974 8.234 189.077 8.122C189.189 8.01 189.319 7.954 189.469 7.954C189.627 7.954 189.758 8.01 189.861 8.122C189.963 8.234 190.015 8.374 190.015 8.542C190.015 8.878 189.907 9.186 189.693 9.466C189.478 9.73667 189.184 9.95133 188.811 10.11C188.447 10.2687 188.031 10.348 187.565 10.348Z" fill="black"/>
<path d="M95.1 42.18C94.128 42.18 93.216 42 92.364 41.64C91.524 41.268 90.786 40.758 90.15 40.11C89.526 39.45 89.034 38.682 88.674 37.806C88.326 36.93 88.152 35.982 88.152 34.962C88.152 33.954 88.326 33.018 88.674 32.154C89.034 31.278 89.526 30.516 90.15 29.868C90.786 29.208 91.524 28.692 92.364 28.32C93.204 27.948 94.116 27.762 95.1 27.762C96.024 27.762 96.816 27.882 97.476 28.122C98.148 28.362 98.82 28.758 99.492 29.31C99.588 29.382 99.66 29.46 99.708 29.544C99.768 29.616 99.804 29.694 99.816 29.778C99.84 29.85 99.852 29.94 99.852 30.048C99.852 30.276 99.768 30.468 99.6 30.624C99.444 30.78 99.246 30.864 99.006 30.876C98.778 30.888 98.562 30.81 98.358 30.642C97.914 30.258 97.452 29.964 96.972 29.76C96.504 29.556 95.88 29.454 95.1 29.454C94.392 29.454 93.726 29.598 93.102 29.886C92.478 30.174 91.926 30.57 91.446 31.074C90.978 31.578 90.612 32.166 90.348 32.838C90.084 33.498 89.952 34.206 89.952 34.962C89.952 35.73 90.084 36.45 90.348 37.122C90.612 37.782 90.978 38.364 91.446 38.868C91.926 39.372 92.478 39.768 93.102 40.056C93.726 40.332 94.392 40.47 95.1 40.47C95.712 40.47 96.288 40.368 96.828 40.164C97.38 39.948 97.908 39.654 98.412 39.282C98.628 39.126 98.838 39.06 99.042 39.084C99.258 39.096 99.438 39.18 99.582 39.336C99.726 39.48 99.798 39.684 99.798 39.948C99.798 40.068 99.774 40.188 99.726 40.308C99.69 40.416 99.618 40.518 99.51 40.614C98.874 41.142 98.184 41.538 97.44 41.802C96.696 42.054 95.916 42.18 95.1 42.18ZM99.798 39.948L97.998 39.588V36.366H95.514C95.25 36.366 95.028 36.288 94.848 36.132C94.668 35.976 94.578 35.778 94.578 35.538C94.578 35.298 94.668 35.1 94.848 34.944C95.028 34.788 95.25 34.71 95.514 34.71H98.88C99.156 34.71 99.378 34.8 99.546 34.98C99.714 35.148 99.798 35.37 99.798 35.646V39.948ZM106.517 42.072C105.521 42.072 104.633 41.862 103.853 41.442C103.085 41.01 102.479 40.422 102.035 39.678C101.603 38.922 101.387 38.058 101.387 37.086C101.387 36.102 101.591 35.238 101.999 34.494C102.419 33.738 102.995 33.15 103.727 32.73C104.459 32.298 105.299 32.082 106.247 32.082C107.183 32.082 107.987 32.292 108.659 32.712C109.331 33.12 109.841 33.69 110.189 34.422C110.549 35.142 110.729 35.976 110.729 36.924C110.729 37.152 110.651 37.344 110.495 37.5C110.339 37.644 110.141 37.716 109.901 37.716H102.647V36.276H109.847L109.109 36.78C109.097 36.18 108.977 35.646 108.749 35.178C108.521 34.698 108.197 34.32 107.777 34.044C107.357 33.768 106.847 33.63 106.247 33.63C105.563 33.63 104.975 33.78 104.483 34.08C104.003 34.38 103.637 34.794 103.385 35.322C103.133 35.838 103.007 36.426 103.007 37.086C103.007 37.746 103.157 38.334 103.457 38.85C103.757 39.366 104.171 39.774 104.699 40.074C105.227 40.374 105.833 40.524 106.517 40.524C106.889 40.524 107.267 40.458 107.651 40.326C108.047 40.182 108.365 40.02 108.605 39.84C108.785 39.708 108.977 39.642 109.181 39.642C109.397 39.63 109.583 39.69 109.739 39.822C109.943 40.002 110.051 40.2 110.063 40.416C110.075 40.632 109.979 40.818 109.775 40.974C109.367 41.298 108.857 41.562 108.245 41.766C107.645 41.97 107.069 42.072 106.517 42.072ZM121.387 42.018C121.123 42.018 120.901 41.934 120.721 41.766C120.553 41.586 120.469 41.364 120.469 41.1V36.672C120.469 35.988 120.343 35.43 120.091 34.998C119.839 34.566 119.497 34.248 119.065 34.044C118.645 33.828 118.159 33.72 117.607 33.72C117.103 33.72 116.647 33.822 116.239 34.026C115.831 34.23 115.507 34.506 115.267 34.854C115.027 35.19 114.907 35.58 114.907 36.024H113.773C113.773 35.268 113.953 34.596 114.313 34.008C114.685 33.408 115.189 32.934 115.825 32.586C116.461 32.238 117.175 32.064 117.967 32.064C118.795 32.064 119.533 32.244 120.181 32.604C120.841 32.952 121.357 33.468 121.729 34.152C122.113 34.836 122.305 35.676 122.305 36.672V41.1C122.305 41.364 122.215 41.586 122.035 41.766C121.867 41.934 121.651 42.018 121.387 42.018ZM113.989 42.018C113.725 42.018 113.503 41.934 113.323 41.766C113.155 41.586 113.071 41.364 113.071 41.1V33.072C113.071 32.796 113.155 32.574 113.323 32.406C113.503 32.238 113.725 32.154 113.989 32.154C114.265 32.154 114.487 32.238 114.655 32.406C114.823 32.574 114.907 32.796 114.907 33.072V41.1C114.907 41.364 114.823 41.586 114.655 41.766C114.487 41.934 114.265 42.018 113.989 42.018ZM126.439 42C126.175 42 125.953 41.916 125.773 41.748C125.605 41.568 125.521 41.346 125.521 41.082V33.072C125.521 32.796 125.605 32.574 125.773 32.406C125.953 32.238 126.175 32.154 126.439 32.154C126.715 32.154 126.937 32.238 127.105 32.406C127.273 32.574 127.357 32.796 127.357 33.072V41.082C127.357 41.346 127.273 41.568 127.105 41.748C126.937 41.916 126.715 42 126.439 42ZM126.439 30.552C126.115 30.552 125.833 30.438 125.593 30.21C125.365 29.97 125.251 29.688 125.251 29.364C125.251 29.04 125.365 28.764 125.593 28.536C125.833 28.296 126.115 28.176 126.439 28.176C126.763 28.176 127.039 28.296 127.267 28.536C127.507 28.764 127.627 29.04 127.627 29.364C127.627 29.688 127.507 29.97 127.267 30.21C127.039 30.438 126.763 30.552 126.439 30.552ZM134.912 42.09C134.084 42.09 133.34 41.916 132.68 41.568C132.032 41.208 131.516 40.686 131.132 40.002C130.76 39.318 130.574 38.478 130.574 37.482V33.054C130.574 32.79 130.658 32.574 130.826 32.406C131.006 32.226 131.228 32.136 131.492 32.136C131.756 32.136 131.972 32.226 132.14 32.406C132.32 32.574 132.41 32.79 132.41 33.054V37.482C132.41 38.154 132.536 38.712 132.788 39.156C133.04 39.588 133.382 39.912 133.814 40.128C134.246 40.332 134.732 40.434 135.272 40.434C135.788 40.434 136.244 40.332 136.64 40.128C137.048 39.924 137.372 39.648 137.612 39.3C137.852 38.952 137.972 38.562 137.972 38.13H139.106C139.106 38.874 138.92 39.546 138.548 40.146C138.188 40.746 137.69 41.22 137.054 41.568C136.43 41.916 135.716 42.09 134.912 42.09ZM138.89 42C138.626 42 138.404 41.916 138.224 41.748C138.056 41.568 137.972 41.346 137.972 41.082V33.054C137.972 32.778 138.056 32.556 138.224 32.388C138.404 32.22 138.626 32.136 138.89 32.136C139.166 32.136 139.388 32.22 139.556 32.388C139.724 32.556 139.808 32.778 139.808 33.054V41.082C139.808 41.346 139.724 41.568 139.556 41.748C139.388 41.916 139.166 42 138.89 42ZM146.624 42.072C145.784 42.072 145.004 41.946 144.284 41.694C143.576 41.43 143.024 41.1 142.628 40.704C142.448 40.512 142.37 40.296 142.394 40.056C142.43 39.804 142.55 39.6 142.754 39.444C142.994 39.252 143.228 39.174 143.456 39.21C143.696 39.234 143.9 39.336 144.068 39.516C144.272 39.744 144.596 39.96 145.04 40.164C145.496 40.356 146 40.452 146.552 40.452C147.248 40.452 147.776 40.338 148.136 40.11C148.508 39.882 148.7 39.588 148.712 39.228C148.724 38.868 148.55 38.556 148.19 38.292C147.842 38.028 147.2 37.812 146.264 37.644C145.052 37.404 144.17 37.044 143.618 36.564C143.078 36.084 142.808 35.496 142.808 34.8C142.808 34.188 142.988 33.684 143.348 33.288C143.708 32.88 144.17 32.58 144.734 32.388C145.298 32.184 145.886 32.082 146.498 32.082C147.29 32.082 147.992 32.208 148.604 32.46C149.216 32.712 149.702 33.06 150.062 33.504C150.23 33.696 150.308 33.9 150.296 34.116C150.284 34.32 150.182 34.494 149.99 34.638C149.798 34.77 149.57 34.812 149.306 34.764C149.042 34.716 148.82 34.608 148.64 34.44C148.34 34.152 148.016 33.954 147.668 33.846C147.32 33.738 146.918 33.684 146.462 33.684C145.934 33.684 145.484 33.774 145.112 33.954C144.752 34.134 144.572 34.398 144.572 34.746C144.572 34.962 144.626 35.16 144.734 35.34C144.854 35.508 145.082 35.664 145.418 35.808C145.754 35.94 146.246 36.072 146.894 36.204C147.794 36.384 148.502 36.612 149.018 36.888C149.546 37.164 149.924 37.488 150.152 37.86C150.38 38.22 150.494 38.64 150.494 39.12C150.494 39.672 150.344 40.17 150.044 40.614C149.756 41.058 149.324 41.412 148.748 41.676C148.184 41.94 147.476 42.072 146.624 42.072ZM164.569 42.18C163.597 42.18 162.685 42 161.833 41.64C160.993 41.268 160.255 40.758 159.619 40.11C158.995 39.45 158.503 38.682 158.143 37.806C157.795 36.93 157.621 35.982 157.621 34.962C157.621 33.954 157.795 33.018 158.143 32.154C158.503 31.278 158.995 30.516 159.619 29.868C160.255 29.208 160.993 28.692 161.833 28.32C162.673 27.948 163.585 27.762 164.569 27.762C165.493 27.762 166.285 27.882 166.945 28.122C167.617 28.362 168.289 28.758 168.961 29.31C169.057 29.382 169.129 29.46 169.177 29.544C169.237 29.616 169.273 29.694 169.285 29.778C169.309 29.85 169.321 29.94 169.321 30.048C169.321 30.276 169.237 30.468 169.069 30.624C168.913 30.768 168.721 30.852 168.493 30.876C168.265 30.888 168.043 30.81 167.827 30.642C167.383 30.258 166.921 29.964 166.441 29.76C165.973 29.556 165.349 29.454 164.569 29.454C163.861 29.454 163.195 29.598 162.571 29.886C161.947 30.174 161.395 30.57 160.915 31.074C160.447 31.578 160.081 32.166 159.817 32.838C159.553 33.498 159.421 34.206 159.421 34.962C159.421 35.73 159.553 36.45 159.817 37.122C160.081 37.782 160.447 38.364 160.915 38.868C161.395 39.372 161.947 39.768 162.571 40.056C163.195 40.332 163.861 40.47 164.569 40.47C165.181 40.47 165.757 40.368 166.297 40.164C166.849 39.948 167.377 39.654 167.881 39.282C168.097 39.126 168.307 39.06 168.511 39.084C168.727 39.096 168.907 39.18 169.051 39.336C169.195 39.48 169.267 39.684 169.267 39.948C169.267 40.068 169.243 40.188 169.195 40.308C169.147 40.416 169.075 40.518 168.979 40.614C168.331 41.13 167.635 41.52 166.891 41.784C166.159 42.048 165.385 42.18 164.569 42.18ZM175.824 42.072C174.852 42.072 173.994 41.862 173.25 41.442C172.506 41.01 171.918 40.422 171.486 39.678C171.066 38.922 170.856 38.058 170.856 37.086C170.856 36.102 171.066 35.238 171.486 34.494C171.918 33.738 172.506 33.15 173.25 32.73C173.994 32.298 174.852 32.082 175.824 32.082C176.784 32.082 177.636 32.298 178.38 32.73C179.124 33.15 179.706 33.738 180.126 34.494C180.558 35.238 180.774 36.102 180.774 37.086C180.774 38.058 180.564 38.922 180.144 39.678C179.724 40.422 179.142 41.01 178.398 41.442C177.654 41.862 176.796 42.072 175.824 42.072ZM175.824 40.452C176.448 40.452 177 40.308 177.48 40.02C177.96 39.732 178.332 39.336 178.596 38.832C178.872 38.328 179.01 37.746 179.01 37.086C179.01 36.426 178.872 35.844 178.596 35.34C178.332 34.824 177.96 34.422 177.48 34.134C177 33.846 176.448 33.702 175.824 33.702C175.2 33.702 174.648 33.846 174.168 34.134C173.688 34.422 173.31 34.824 173.034 35.34C172.758 35.844 172.62 36.426 172.62 37.086C172.62 37.746 172.758 38.328 173.034 38.832C173.31 39.336 173.688 39.732 174.168 40.02C174.648 40.308 175.2 40.452 175.824 40.452Z" fill="black"/>
<rect x="0.5" y="0.5" width="198" height="49" rx="4.5" stroke="#145855"/>
<rect x="0.5" y="0.5" width="69" height="49" rx="2.5" fill="#145855" stroke="#145855"/>
<path d="M13.87 37C13.49 37 13.16 36.87 12.88 36.61C12.6 36.33 12.46 35.99 12.46 35.59V13.57H15.28V35.59C15.28 35.99 15.15 36.33 14.89 36.61C14.63 36.87 14.29 37 13.87 37ZM5.74 16.15C5.36 16.15 5.05 16.03 4.81 15.79C4.57 15.55 4.45 15.24 4.45 14.86C4.45 14.48 4.57 14.17 4.81 13.93C5.05 13.69 5.36 13.57 5.74 13.57H22C22.4 13.57 22.72 13.69 22.96 13.93C23.2 14.17 23.32 14.48 23.32 14.86C23.32 15.24 23.2 15.55 22.96 15.79C22.72 16.03 22.4 16.15 22 16.15H5.74ZM28.1854 37C27.7854 37 27.4454 36.87 27.1654 36.61C26.9054 36.33 26.7754 35.99 26.7754 35.59V14.98C26.7754 14.56 26.9054 14.22 27.1654 13.96C27.4454 13.7 27.7854 13.57 28.1854 13.57H41.9554C42.3554 13.57 42.6854 13.7 42.9454 13.96C43.2054 14.2 43.3354 14.52 43.3354 14.92C43.3354 15.28 43.2054 15.59 42.9454 15.85C42.6854 16.09 42.3554 16.21 41.9554 16.21H29.5954V23.89H38.5054C38.9254 23.89 39.2554 24.02 39.4954 24.28C39.7554 24.52 39.8854 24.83 39.8854 25.21C39.8854 25.59 39.7554 25.91 39.4954 26.17C39.2554 26.41 38.9254 26.53 38.5054 26.53H29.5954V34.36H41.9554C42.3554 34.36 42.6854 34.49 42.9454 34.75C43.2054 34.99 43.3354 35.29 43.3354 35.65C43.3354 36.05 43.2054 36.38 42.9454 36.64C42.6854 36.88 42.3554 37 41.9554 37H28.1854ZM46.6134 37C46.0934 37 45.7034 36.78 45.4434 36.34C45.1834 35.9 45.1634 35.44 45.3834 34.96L53.9634 14.53C54.2234 13.89 54.6634 13.57 55.2834 13.57C55.9434 13.57 56.3934 13.89 56.6334 14.53L65.2434 35.02C65.4434 35.5 65.4034 35.95 65.1234 36.37C64.8634 36.79 64.4734 37 63.9534 37C63.6934 37 63.4434 36.93 63.2034 36.79C62.9634 36.63 62.7834 36.41 62.6634 36.13L54.8934 17.05H55.7634L47.9334 36.13C47.8134 36.43 47.6334 36.65 47.3934 36.79C47.1534 36.93 46.8934 37 46.6134 37ZM48.3534 31.69L49.4634 29.32H61.3734L62.4534 31.69H48.3534Z" fill="#F4F7F8"/>
</svg>
